<svg xmlns="http://www.w3.org/2000/svg" xmlns:xlink="http://www.w3.org/1999/xlink" width="392.98" height="106" viewBox="0 0 392.98 106"><defs><linearGradient id="a" x1="0.735" x2="0.28" y2="0.964" gradientUnits="objectBoundingBox"><stop offset="0" stop-color="#13a5f2"/><stop offset="1" stop-color="#6f1bd1"/></linearGradient><linearGradient id="b" x1="0.902" y1="-3.79" x2="0.267" y2="-4.219" gradientUnits="objectBoundingBox"><stop offset="0" stop-color="#6a22d3"/><stop offset="1" stop-color="#1a9aef"/></linearGradient></defs><g transform="translate(-4349.327 -107.194)"><g transform="translate(4349 107)"><rect width="106" height="106" rx="40" transform="translate(0.327 0.194)" fill="url(#a)"/><g transform="translate(7.321 13.111)"><path d="M30.749,0,41,17.756,30.749,35.512H10.25L0,17.756,10.25,0Z" transform="translate(17.756 0) rotate(30)" fill="#fff"/><path d="M30.749,0,41,17.756,30.749,35.512H10.25L0,17.756,10.25,0Z" transform="translate(56.232) rotate(30)" fill="#fff"/><path d="M30.749,0,41,17.756,30.749,35.512H10.25L0,17.756,10.25,0Z" transform="translate(37.099 33.43) rotate(30)" fill="#fff"/></g></g><path d="M28.977-172.982v-45.873h4.189v21.033H59.193v-21.033h4.189v45.873H59.193v-21.077H33.166v21.077Zm45.806,0v-34.4h4.009v34.4ZM76.821-213.3a2.94,2.94,0,0,1-2.094-.84,2.694,2.694,0,0,1-.885-2.027,2.694,2.694,0,0,1,.885-2.027,2.94,2.94,0,0,1,2.094-.84,2.967,2.967,0,0,1,2.117.84,2.694,2.694,0,0,1,.885,2.027,2.694,2.694,0,0,1-.885,2.027A2.967,2.967,0,0,1,76.821-213.3ZM116-207.387l-12.566,34.4H99.176l-12.566-34.4h4.323l10.214,29.141h.314l10.214-29.141Zm20.428,35.122a15.121,15.121,0,0,1-8.332-2.251,14.847,14.847,0,0,1-5.432-6.249,21.1,21.1,0,0,1-1.915-9.217,21.337,21.337,0,0,1,1.915-9.24,15.431,15.431,0,0,1,5.309-6.339,13.675,13.675,0,0,1,7.851-2.3,14.654,14.654,0,0,1,5.4,1.019,13.421,13.421,0,0,1,4.67,3.113,14.934,14.934,0,0,1,3.281,5.264,20.993,20.993,0,0,1,1.21,7.492V-189H123.5v-3.517h22.8a13.117,13.117,0,0,0-1.333-5.969,10.578,10.578,0,0,0-3.7-4.2,9.739,9.739,0,0,0-5.454-1.546,9.76,9.76,0,0,0-5.757,1.747,11.914,11.914,0,0,0-3.886,4.614,14.32,14.32,0,0,0-1.422,6.272v2.105a16.814,16.814,0,0,0,1.422,7.156,10.961,10.961,0,0,0,4.043,4.737,11.247,11.247,0,0,0,6.2,1.68,11.194,11.194,0,0,0,4.289-.762,9.231,9.231,0,0,0,3.113-2.05,9.012,9.012,0,0,0,1.915-2.833l3.785,1.232a11.217,11.217,0,0,1-2.565,4.009,13.13,13.13,0,0,1-4.435,2.945A15.726,15.726,0,0,1,136.425-172.265Zm23.541-46.59H164.8l16.642,39.96h.4l16.642-39.96h4.838v45.873h-3.942v-37.025h-.358l-15.478,37.025h-3.808l-15.478-37.025h-.358v37.025h-3.942Zm54.765,45.873v-34.4h4.009v34.4ZM216.77-213.3a2.94,2.94,0,0,1-2.094-.84,2.694,2.694,0,0,1-.885-2.027,2.694,2.694,0,0,1,.885-2.027,2.94,2.94,0,0,1,2.094-.84,2.967,2.967,0,0,1,2.117.84,2.694,2.694,0,0,1,.885,2.027,2.694,2.694,0,0,1-.885,2.027A2.967,2.967,0,0,1,216.77-213.3Zm16.53,18.815v21.5h-3.987v-34.4h3.875v5.4h.358a9.674,9.674,0,0,1,3.774-4.245,11.773,11.773,0,0,1,6.35-1.6,12.482,12.482,0,0,1,6.1,1.445,10.006,10.006,0,0,1,4.1,4.245,14.68,14.68,0,0,1,1.467,6.876v22.287h-3.987v-22.041a9.272,9.272,0,0,0-2.363-6.7,8.359,8.359,0,0,0-6.328-2.464,9.782,9.782,0,0,0-4.816,1.165,8.443,8.443,0,0,0-3.326,3.349A10.463,10.463,0,0,0,233.3-194.485Zm44.955,22.22a12.549,12.549,0,0,1-7.414-2.24,14.752,14.752,0,0,1-4.961-6.249,22.833,22.833,0,0,1-1.781-9.34,22.694,22.694,0,0,1,1.781-9.307,14.616,14.616,0,0,1,4.984-6.227,12.732,12.732,0,0,1,7.459-2.229,11.024,11.024,0,0,1,5.219,1.109A10.109,10.109,0,0,1,286.879-204a16.166,16.166,0,0,1,1.949,3.181h.358v-18.031H293.2v45.873h-3.9v-6.384h-.47a15.625,15.625,0,0,1-1.971,3.214,10.377,10.377,0,0,1-3.371,2.766A11,11,0,0,1,278.255-172.265Zm.47-3.651a9,9,0,0,0,5.689-1.826,11.409,11.409,0,0,0,3.6-5.04,20.363,20.363,0,0,0,1.243-7.38,20.029,20.029,0,0,0-1.232-7.291,11.2,11.2,0,0,0-3.584-4.973,9.11,9.11,0,0,0-5.712-1.8,9.074,9.074,0,0,0-5.812,1.87,11.548,11.548,0,0,0-3.584,5.051,19.812,19.812,0,0,0-1.221,7.145,20.146,20.146,0,0,0,1.232,7.235,11.76,11.76,0,0,0,3.6,5.118A8.969,8.969,0,0,0,278.725-175.916Z" transform="translate(4449.112 356.303)" fill="url(#b)"/></g></svg>